PathFileType	4	(X/Y/Z)	Kaydara	
DataRate	CameraRate	NumFrames	NumMarkers	Units	OrigDataRate	OrigDataStartFrame	OrigNumFrames	
60.00	60.00	4	74	mm	60.00	695	227	
Frame#	Time	N_lasi			N_rasi			N_rpsi			N_lpsi			N_fneck			N_bneck			N_fhead			N_rhead			N_lhead			N_rshld			N_relbtop			N_relbext			N_relblow			N_rwrext			N_rwrtop			N_rwrlow			N_lshld			N_lelbext			N_lelbtop			N_lwrext			N_lwrtop			N_lwrlow			N_rtopleg			N_ltopleg			N_rkneefr			N_rkneebk			N_rkneeis			N_lkneefr			N_lknssbk			N_lkneeis			N_rankfr			N_rankis			N_rankbk			N_lankfr			N_lankbk			N_lankis			Z_lasi			Z_rasi			Z_rpsi			Z_lpsi			Z_fneck			Z_bneck			Z_fhead			Z_rhead			Z_lhead			Z_rshld			Z_relbtop			Z_relbext			Z_relblow			Z_rwrext			Z_rwrtop			Z_rwrlow			Z_lshld			Z_lelbext			Z_lelblow			Z_lelbtop			Z_lwrext			Z_lwrtop			Z_lwrlow			Z_rtopleg			Z_ltopleg			Z_rkneefr			Z_rkneebk			Z_rkneeis			Z_lkneefr			Z_lknssbk			Z_lkneeis			Z_rankfr			Z_rankis			Z_lankfr			Z_lankbk			Z_lankis			N_lelblow			Z_rankbk			
		X1	Y1	Z1	X2	Y2	Z2	X3	Y3	Z3	X4	Y4	Z4	X5	Y5	Z5	X6	Y6	Z6	X7	Y7	Z7	X8	Y8	Z8	X9	Y9	Z9	X10	Y10	Z10	X11	Y11	Z11	X12	Y12	Z12	X13	Y13	Z13	X14	Y14	Z14	X15	Y15	Z15	X16	Y16	Z16	X17	Y17	Z17	X18	Y18	Z18	X19	Y19	Z19	X20	Y20	Z20	X21	Y21	Z21	X22	Y22	Z22	X23	Y23	Z23	X24	Y24	Z24	X25	Y25	Z25	X26	Y26	Z26	X27	Y27	Z27	X28	Y28	Z28	X29	Y29	Z29	X30	Y30	Z30	X31	Y31	Z31	X32	Y32	Z32	X33	Y33	Z33	X34	Y34	Z34	X35	Y35	Z35	X36	Y36	Z36	X37	Y37	Z37	X38	Y38	Z38	X39	Y39	Z39	X40	Y40	Z40	X41	Y41	Z41	X42	Y42	Z42	X43	Y43	Z43	X44	Y44	Z44	X45	Y45	Z45	X46	Y46	Z46	X47	Y47	Z47	X48	Y48	Z48	X49	Y49	Z49	X50	Y50	Z50	X51	Y51	Z51	X52	Y52	Z52	X53	Y53	Z53	X54	Y54	Z54	X55	Y55	Z55	X56	Y56	Z56	X57	Y57	Z57	X58	Y58	Z58	X59	Y59	Z59	X60	Y60	Z60	X61	Y61	Z61	X62	Y62	Z62	X63	Y63	Z63	X64	Y64	Z64	X65	Y65	Z65	X66	Y66	Z66	X67	Y67	Z67	X68	Y68	Z68	X69	Y69	Z69	X70	Y70	Z70	X71	Y71	Z71	X72	Y72	Z72	X73	Y73	Z73	X74	Y74	Z74	

171	11.567	-1755.35553	1014.76952	-184.83084	-1969.37881	1006.46690	-248.58377	-1885.58014	1078.80798	-478.21571	-1664.53766	1074.02985	-377.06783	-1848.09006	1479.43253	-184.04991	-1811.48392	1557.68082	-305.82121	-1819.94873	1686.29944	-74.04478	-1900.69244	1695.93964	-232.81530	-1743.63022	1691.69388	-227.81408	-2028.94333	1463.99200	-346.54072	-2076.53397	1179.03175	-472.13879	-1995.95673	1162.37144	-456.01246	-2072.10541	1170.81238	-398.75469	-2131.16974	926.32538	-437.29565	-2151.16974	934.98314	-391.42368	-2114.22440	928.69629	-363.96595	-1613.90686	1449.97559	-194.48271	-1613.90350	1118.56445	-275.97378	-1525.96054	1171.22993	-244.00198	-1480.77835	920.48004	-283.61195	-1472.14844	912.20734	-231.69565	-1519.22134	899.99802	-221.62197	-2000.97290	880.67467	-447.15679	-1655.85312	890.03784	-228.59617	-1977.48962	429.19704	-415.80021	-1943.95874	519.40090	-489.80484	-1869.15466	472.10567	-409.55757	-1899.70108	484.60651	-140.61012	-1797.06360	489.09470	-182.39502	-1898.74756	493.15388	-254.75643	-1840.30655	247.61272	-638.10131	-1774.64462	279.51845	-624.83070	-1830.08423	293.62177	-686.20369	-1892.56287	155.64480	-175.12980	-1902.68219	164.85224	-269.97890	-1949.44443	174.07925	-213.05826	264.00276	1000.28931	-248.09372	485.42423	1000.61783	-339.04861	532.79659	1066.48186	-146.58348	351.78627	1059.43405	-80.00550	341.72447	1442.27142	-344.31389	388.67344	1525.72235	-268.50647	291.75714	1556.92444	-479.03263	432.33356	1632.52502	-374.77379	317.19208	1634.49188	-311.13541	600.80479	1384.17801	-350.47523	667.84042	1085.23178	-314.20582	597.53967	1077.48810	-303.12386	637.59045	1111.51230	-389.39007	624.54258	848.70964	-422.36984	618.26653	861.82335	-464.79538	574.26861	876.29234	-459.18736	200.24811	1428.78891	-183.28403	238.77747	1108.95470	-120.58377	150.57628	1131.65268	-131.56213	191.98065	1113.42461	-62.14973	127.90860	900.82664	-119.01543	108.59555	910.61226	-155.82664	146.79945	907.51816	-179.67142	581.01765	903.38394	-250.88741	239.20027	924.69650	-156.51463	516.84113	426.47049	-255.85859	574.16241	465.69717	-196.05593	457.97939	454.44431	-182.79196	235.50993	457.47833	-366.96503	210.08347	456.77929	-286.26150	327.96940	445.27569	-308.71401	529.00043	176.88690	-166.54930	486.08746	186.99446	-99.60790	238.12771	212.37585	-421.85467	187.06541	194.99043	-365.47707	252.41241	178.03511	-356.25435	-1598.64655	1140.75371	-226.48355	558.35476	183.24924	-94.79823 
172	11.583	-1758.55698	1014.98627	-169.60798	-1974.27582	1007.47719	-231.76533	-1890.63034	1080.06790	-460.90218	-1668.49548	1075.43106	-361.40930	-1853.28415	1481.35971	-168.53872	-1816.96869	1559.89914	-290.49187	-1824.47937	1687.18491	-57.77516	-1905.73380	1698.35632	-216.15797	-1748.75885	1693.90732	-211.75953	-2034.77158	1465.79193	-330.15678	-2083.80005	1181.30829	-456.05026	-2003.12683	1164.89578	-441.88416	-2078.04260	1172.82097	-382.99744	-2137.12677	928.44635	-420.82268	-2156.30127	936.94000	-374.53854	-2118.80310	930.73090	-347.82146	-1619.26971	1452.32315	-179.78487	-1626.64108	1118.44894	-257.08141	-1537.37061	1169.75899	-222.55907	-1499.60022	916.83189	-256.55384	-1495.88593	909.20830	-203.98581	-1543.76266	899.03358	-197.23675	-2008.78403	882.73621	-425.51620	-1660.28336	889.48868	-217.86873	-1995.48523	432.31895	-383.70365	-1961.89545	522.16442	-457.10037	-1886.54175	473.57479	-378.94741	-1901.51352	482.69394	-130.34255	-1800.41870	488.89435	-174.68323	-1902.83539	493.79337	-244.17919	-1859.79294	256.10483	-611.83140	-1794.03442	287.92809	-598.55881	-1850.08926	303.00694	-658.85468	-1893.49701	154.25778	-173.66135	-1904.16351	165.63257	-267.83508	-1950.70938	173.05939	-210.38849	259.93782	995.88692	-257.72907	480.79197	998.11462	-350.62542	528.68671	1064.27124	-158.43974	348.37616	1055.44640	-90.28468	333.63762	1438.80051	-354.46213	380.95543	1522.57278	-278.94464	282.00296	1553.64090	-488.76015	423.28316	1629.49158	-384.94125	308.86692	1630.88837	-321.09131	592.69295	1381.51169	-362.89791	660.55130	1082.50153	-328.74660	590.37941	1074.55681	-316.56954	629.46259	1109.04335	-403.38215	616.39297	846.29951	-437.03289	609.65008	859.53384	-479.40334	565.69878	874.01878	-473.48495	193.49747	1424.24225	-192.47074	233.44603	1104.69910	-129.51361	145.07751	1127.13135	-139.71072	187.11245	1109.28642	-70.69740	123.10485	896.40015	-126.33142	103.49084	905.93689	-163.16586	141.53442	902.88086	-187.27636	577.11060	902.17598	-262.64818	237.07148	919.73831	-166.39654	514.93126	425.13988	-258.53453	572.16198	465.51594	-199.42162	455.76565	453.61778	-185.85325	232.93049	455.70297	-377.43721	209.80009	451.56689	-296.48495	327.16545	441.58924	-322.39494	528.31463	176.30627	-167.16867	485.33768	186.67704	-100.28975	230.33354	214.53955	-443.04089	182.22597	194.49429	-385.05802	246.98570	176.94635	-379.38160	-1612.71149	1141.99333	-210.14175	557.56241	183.52455	-95.54488 
173	11.600	-1761.69769	1015.91568	-153.99722	-1978.98102	1009.58595	-215.11469	-1896.50360	1082.21497	-444.53545	-1673.52219	1077.34474	-346.52946	-1857.82257	1483.48358	-154.15706	-1822.70706	1562.44476	-275.81570	-1828.83575	1688.42758	-41.90922	-1910.77606	1701.03851	-199.93946	-1753.84399	1696.43387	-196.45508	-2040.44128	1467.92709	-314.27471	-2090.54688	1183.66074	-440.33199	-2009.61166	1167.39639	-427.23743	-2083.78464	1174.93881	-367.15508	-2143.03680	930.75188	-404.42619	-2161.22482	939.14772	-357.56039	-2123.37250	933.16818	-331.32668	-1624.45618	1455.27069	-165.73645	-1638.83575	1119.66209	-239.12273	-1548.89786	1169.50539	-202.15410	-1518.11371	914.42116	-227.79877	-1519.95575	908.04054	-174.90179	-1568.49350	900.07591	-172.17163	-2016.56158	885.26733	-404.40758	-1663.66577	889.87984	-206.91738	-2012.02148	436.08776	-351.14952	-1979.01566	525.47951	-425.01518	-1903.43048	475.45464	-347.86282	-1902.51678	481.09917	-121.21103	-1801.81137	489.21368	-167.06245	-1906.05072	494.82155	-234.46573	-1878.61343	264.08865	-584.46533	-1813.42239	294.90149	-571.78204	-1870.05219	311.79270	-631.13159	-1893.46863	153.95454	-172.16530	-1904.99771	167.02061	-265.86456	-1951.20880	172.91515	-207.81223	254.95371	991.71448	-267.50778	475.18715	995.77454	-362.31926	524.28894	1062.31567	-170.58256	344.75765	1051.52588	-100.93639	324.86687	1435.42786	-364.36775	372.65480	1519.46579	-289.23126	271.55628	1550.30594	-498.22865	413.78025	1625.89111	-396.06827	299.88342	1627.34970	-330.62214	584.05682	1378.98499	-375.08812	652.46010	1080.00290	-342.91744	582.31834	1071.62735	-330.60661	620.73833	1106.82373	-417.39426	608.12004	844.03526	-451.46889	600.92548	857.34123	-493.71841	556.92558	871.62735	-487.20085	186.17146	1419.72488	-201.55853	227.65255	1100.23514	-138.43344	139.12061	1122.48825	-148.13456	181.64143	1105.03403	-79.40276	117.94834	891.78947	-133.78883	98.00861	901.10153	-170.63745	135.78888	898.06190	-194.86925	573.29193	901.09909	-274.90665	233.72133	915.20241	-175.89920	512.95574	424.28745	-261.92120	569.94732	465.50705	-203.32634	453.43452	453.51978	-188.96786	229.81497	453.80630	-389.01604	209.54636	446.67519	-307.45081	326.15807	439.10072	-337.60468	527.59125	175.85369	-167.81326	484.88289	186.65543	-100.81424	223.57578	215.66174	-462.19276	179.76374	192.72238	-402.62486	245.83622	177.24861	-402.12616	-1625.57343	1144.67346	-194.62933	557.15015	183.84874	-96.35366 
174	11.617	-1764.70749	1017.97508	-138.75147	-1983.88687	1013.10577	-196.99638	-1902.50916	1084.68208	-427.49756	-1678.45062	1079.65202	-332.43107	-1862.60406	1486.13312	-139.53432	-1828.22830	1565.36453	-261.63029	-1833.28110	1689.87411	-26.47411	-1915.81635	1703.90625	-184.19483	-1758.89359	1699.40582	-181.48815	-2046.05728	1470.35736	-298.93356	-2096.66519	1185.96771	-424.49661	-2015.46432	1169.97276	-412.34531	-2089.07410	1177.25967	-351.73840	-2148.40332	933.02483	-387.84481	-2165.91904	941.56799	-340.65125	-2127.49359	935.55344	-315.18866	-1629.54132	1458.64517	-152.21050	-1649.16260	1121.88477	-222.04031	-1558.65616	1170.26176	-182.32628	-1537.94510	914.29375	-197.41596	-1544.16702	909.26849	-145.02107	-1594.12033	903.94188	-145.12739	-2024.29565	888.32314	-383.11150	-1666.88644	891.26335	-195.32885	-2027.03583	440.66460	-318.77092	-1994.91776	530.08881	-393.19355	-1917.79251	479.09222	-317.83426	-1903.31039	479.60342	-113.68230	-1802.79068	489.19865	-160.05819	-1907.77222	495.57892	-226.62092	-1896.62369	271.48151	-556.19801	-1830.63477	303.39970	-544.14505	-1888.98148	319.56196	-602.58930	-1893.62686	153.72705	-170.68432	-1905.31158	168.18434	-264.02191	-1951.50360	173.06122	-205.73612	249.37626	987.90169	-277.38316	468.73848	993.64609	-374.24896	519.37840	1060.44167	-182.94821	340.81821	1047.85690	-111.61468	315.43825	1432.24442	-374.07261	363.70461	1516.51291	-299.36258	260.38858	1547.13348	-507.44205	405.32524	1623.06076	-404.47414	290.10946	1624.15466	-340.08102	574.82571	1376.78375	-387.21020	643.79883	1077.92595	-356.91483	574.05716	1069.35143	-343.60458	611.14132	1104.71176	-430.73055	599.42104	841.95854	-465.18356	591.94347	855.31631	-507.48417	547.98729	869.40475	-500.66097	178.41396	1415.38925	-210.32557	221.60114	1095.84984	-147.80206	132.77093	1117.89406	-156.64697	176.18332	1100.70892	-88.43909	112.15627	887.24083	-140.74060	92.32989	896.26022	-178.24081	129.94651	893.30292	-203.68963	568.86135	899.96277	-287.21695	229.94028	911.33102	-185.78012	510.04105	423.61366	-265.30409	567.32994	465.70480	-207.81115	450.94971	453.72837	-192.46641	226.29009	451.52050	-401.81198	208.76144	442.16438	-319.51719	324.39087	437.72675	-353.85326	526.94458	175.75577	-168.81680	484.33128	187.09435	-101.93564	218.14293	215.17643	-479.22791	178.76389	189.94755	-417.36961	245.91774	176.65466	-422.41531	-1636.46896	1148.36250	-180.29234	556.50021	184.64163	-97.48414 
